<?xml version="1.0" encoding="UTF-8"?>
<svg xmlns="http://www.w3.org/2000/svg" xmlns:xlink="http://www.w3.org/1999/xlink" viewBox="0 0 164.71 232.42">
  <defs>
    <style>
      .cls-1 {
        fill: url(#linear-gradient);
      }

      .cls-2 {
        fill: #fff;
      }

      .cls-3 {
        fill: #645ae9;
      }

      .cls-4 {
        fill: url(#linear-gradient-8);
        opacity: .78;
      }

      .cls-4, .cls-5, .cls-6, .cls-7, .cls-8 {
        mix-blend-mode: multiply;
      }

      .cls-5 {
        fill: url(#linear-gradient-6);
      }

      .cls-5, .cls-6, .cls-7, .cls-8 {
        opacity: .3;
      }

      .cls-6 {
        fill: url(#linear-gradient-7);
      }

      .cls-7 {
        fill: url(#linear-gradient-9);
      }

      .cls-8 {
        fill: url(#linear-gradient-10);
      }

      .cls-9 {
        fill: url(#linear-gradient-3);
      }

      .cls-10 {
        fill: url(#linear-gradient-4);
      }

      .cls-11 {
        fill: url(#linear-gradient-2);
      }

      .cls-12 {
        fill: url(#linear-gradient-5);
      }

      .cls-13 {
        fill: url(#linear-gradient-11);
      }

      .cls-14 {
        isolation: isolate;
      }
    </style>
    <linearGradient id="linear-gradient" x1="-30.49" y1="250.19" x2="188.11" y2="8.57" gradientUnits="userSpaceOnUse">
      <stop offset="0" stop-color="#8e54e9"/>
      <stop offset=".59" stop-color="#6567e7"/>
      <stop offset="1" stop-color="#4776e6"/>
    </linearGradient>
    <linearGradient id="linear-gradient-2" x1="25.63" y1="200.15" x2="150.53" y2="108.12" gradientUnits="userSpaceOnUse">
      <stop offset="0" stop-color="#4776e6"/>
      <stop offset=".48" stop-color="#479ee6"/>
      <stop offset="1" stop-color="#47cfe6"/>
    </linearGradient>
    <linearGradient id="linear-gradient-3" x1="31.57" y1="208.22" x2="156.5" y2="116.17" xlink:href="#linear-gradient-2"/>
    <linearGradient id="linear-gradient-4" x1="169.66" y1="10.75" x2="45.16" y2="131.97" gradientUnits="userSpaceOnUse">
      <stop offset="0" stop-color="#4776e6"/>
      <stop offset=".18" stop-color="#477be6"/>
      <stop offset=".42" stop-color="#478ce6"/>
      <stop offset=".7" stop-color="#47a7e6"/>
      <stop offset=".99" stop-color="#47cde6"/>
      <stop offset="1" stop-color="#47cfe6"/>
    </linearGradient>
    <linearGradient id="linear-gradient-5" x1="140.94" y1="87.43" x2="28.35" y2="178.93" xlink:href="#linear-gradient"/>
    <linearGradient id="linear-gradient-6" x1="42.12" y1="177.64" x2="148.74" y2="104.5" gradientUnits="userSpaceOnUse">
      <stop offset="0" stop-color="#4776e6"/>
      <stop offset=".1" stop-color="#477be6" stop-opacity=".94"/>
      <stop offset=".29" stop-color="#478ae6" stop-opacity=".77"/>
      <stop offset=".56" stop-color="#47a1e6" stop-opacity=".51"/>
      <stop offset=".88" stop-color="#47c2e6" stop-opacity=".14"/>
      <stop offset="1" stop-color="#47cfe6" stop-opacity="0"/>
    </linearGradient>
    <linearGradient id="linear-gradient-7" x1="75.54" y1="141.54" x2="81.02" y2="45.39" xlink:href="#linear-gradient-6"/>
    <linearGradient id="linear-gradient-8" x1="21.34" y1="220.63" x2="147.49" y2="220.63" xlink:href="#linear-gradient-6"/>
    <linearGradient id="linear-gradient-9" x1="116.3" y1="148.03" x2="130.06" y2="136.97" xlink:href="#linear-gradient-6"/>
    <linearGradient id="linear-gradient-10" x1="172.94" y1="15.66" x2="83.91" y2="110.99" xlink:href="#linear-gradient-6"/>
    <linearGradient id="linear-gradient-11" x1="82.02" y1="71.88" x2="167.08" y2="16.2" xlink:href="#linear-gradient-6"/>
  </defs>
  <g class="cls-14">
    <g id="_Слой_2" data-name="Слой 2">
      <g id="Objects">
        <g>
          <path class="cls-1" d="M151.06,71.75s-.09,.09-.13,.14c0,0,4.66-3.16,10.28-7.84-6.47,28.73-23.67,60.03-65.15,77.44-26.36,11.07-54.06,16.04-67.59,23.77-23.07,13.18-26.35,31.03-22.84,47.53,0,0-.04-.05-.1-.16-1.31-2.12-14.58-25.21,5.42-55.47,8.25-12.49,39.76-37.34,91.43-35.13-.55-.25-3.06-1.45-11.81-3.97-2.2-.63-4.5-1.23-6.8-1.73,10-4.23,19.73-9.31,28.47-16.46C159.87,60.89,159.8,17.93,161.61,0c0,0,4.21,17.65,2.81,41.05-.69,11.48-5.36,22.43-13.36,30.7Z"/>
          <path class="cls-11" d="M151.02,103.19s0,.03-.01,.06c-.18,.89-1.85,8.98-7.25,19.84-4.69,9.44-12.69,16.95-22.61,20.53-.05,.01-.1,.04-.15,.05l.13-.02c.81-.12,5.4-.82,11.05-2.21-.19,.25-.4,.49-.59,.76-23.26,32.48-60.78,29.64-60.99,29.64,0,0,11.42,2.84,25.78-.58-16.81,8.97-31.59,12.76-49.25,15.19h0c-.21-.19-3.99-3.51-6.29-9.47-1.19-3.07-1.98-6.84-1.69-11.24h0c5.96-2.38,13.57-4.67,21.99-7.21,11.68-3.52,24.93-7.51,37.98-12.99,24.07-10.11,40.03-27.18,51.9-42.36Z"/>
          <path class="cls-9" d="M47.92,202.97c-2.8,3.72-9.18,12.83-10.13,14.07,.39-2.04,1.67-8.39,3.57-13.88,.33-.95,.6-1.69,.82-2.24,.08,.01,.17,.02,.26,.02,1.23,.03,2.24-.95,2.26-2.18,.02-1.22-.95-2.22-2.18-2.25-1.22-.02-2.23,.95-2.25,2.17-.01,.77,.36,1.46,.95,1.86-1.84,5.11-3.14,13.67-3.56,16.42-.29-2.26-1.52-12.41-2.04-16.79-.15-1.35,.25-2.7,1.11-3.75l11.55-13.93,.17,3.78v.02l.57,13c.08,1.32-.31,2.63-1.11,3.68Z"/>
          <path class="cls-3" d="M147.49,229.55c-5.97-11.88-18.8-17.97-31.59-17.7-12.84,.28-25.13,4.92-37.2,9.29-15.19,5.33-33.3,13.7-49.72,10.61-2.56-.51-5.15-1.32-7.64-2.41-7.25-3.18-13.59-8.76-15.71-16.44,5.25,8.15,14.89,12.24,24.25,12.98,9.47,.86,18.45-2.28,27.53-5.33,18.91-6.49,38.09-15.82,58.74-14.23,8.16,.59,16.37,3.77,22.47,9.15-1.24-1.32-2.52-2.62-3.85-3.84-6.8-6.39-13.62-9.34-23.09-9.74-22.6-.92-43.16,10.09-64.04,16.87,15.55-9.32,31.73-18.2,50.27-20.88,14.87-2.07,28.98,.47,38.47,12.36,2.64,3.14,8.9,13.02,10.99,18.99,.07,.18,.11,.3,.12,.33Z"/>
          <path class="cls-10" d="M161.61,0s0,.02,0,.07c-.04,.34-.07,.69-.1,1.05-.02,.13-.03,.26-.04,.39-.01,.14-.03,.28-.05,.44-1.93,18.98-6.15,54.62-54.23,92.21-17.22,13.47-39.01,21.08-59.32,29.47-2.96,1.22-5.89,2.46-8.76,3.73,1.48-4.9,3.31-9.4,5.42-13.55,8.33-16.37,22.58-28.95,39.57-35.93,9.31-3.83,21.28-7.94,31.8-9,.57-.05,.94-.09,1.06-.09,.01,0,.03,0,.04,0h-.03c-.61-.08-10.64-1.25-21.41-.85,4.25-2.4,8.37-4.71,12.22-7.04C148.26,36.36,161.17,1.21,161.6,0h0Z"/>
          <path class="cls-2" d="M158.95,71.35c-7.95,27.52-24.68,49.51-65.15,67.56-25.72,11.47-52.75,16.63-65.95,24.65-22.51,13.66-25.92,31.04-22.5,48.15,0,0,.06,.11,0,0-1.45-4.05-16.53-50.98,51.5-68.37,81.82-20.9,92.03-46.22,102.11-71.98Z"/>
          <path class="cls-12" d="M161.21,64.05c-6.47,28.73-23.67,60.03-65.15,77.44-26.36,11.07-54.06,16.04-67.59,23.77-23.07,13.18-26.35,31.03-22.84,47.53,0,0-.04-.05-.1-.16-1.48-3.91-17.76-51.05,51.96-67.82,83.85-20.16,93.54-53.34,103.73-80.76Z"/>
          <path class="cls-5" d="M151.02,103.19s0,.03-.01,.06c-18.65,41.76-76.47,56.24-93.93,61.58-17.21,5.26-11.29,20.02-11.09,20.48-.21-.18-3.18-3.29-5.16-8.32-1.2-3.07-1.98-6.84-1.69-11.24h0c5.96-2.38,13.57-4.67,21.99-7.21,11.68-3.52,24.93-7.51,37.98-12.99,24.07-10.11,40.03-27.18,51.9-42.36Z"/>
          <path class="cls-6" d="M116.94,68.79c-57.57,9.91-69.09,54.84-69.09,54.84-2.96,1.22-5.89,2.46-8.76,3.73,1.48-4.9,3.31-9.4,5.42-13.55,8.33-16.37,22.58-28.95,39.57-35.93,9.31-3.83,21.28-7.94,31.8-9,.57-.05,.94-.09,1.06-.09Z"/>
          <path class="cls-4" d="M147.49,229.55c-5.97-11.88-18.8-17.97-31.59-17.7-12.84,.28-25.13,4.92-37.2,9.29-15.19,5.33-33.3,13.7-49.72,10.61-2.56-.51-5.15-1.32-7.64-2.41,19.92,6.41,38.42-3.75,60.69-12.31,7.42-2.86,15.01-5.99,24.83-7.58,27.57-4.46,39.35,16.64,40.51,19.76,.07,.18,.11,.3,.12,.33Z"/>
          <path class="cls-7" d="M132.19,141.44c-4.64,3.07-22.99,6.13-22.99,6.13l11.81-3.9,.13-.02c.81-.12,5.4-.82,11.05-2.21Z"/>
          <path class="cls-8" d="M83.77,116.34c10-4.23,19.73-9.31,28.47-16.46C159.87,60.89,159.8,17.93,161.61,0c-.4,101.89-77.84,116.34-77.84,116.34Z"/>
          <path class="cls-13" d="M161.61,0s0,.02,0,.07c-.04,.34-.07,.69-.1,1.05-.02,.13-.03,.26-.04,.39-.01,.14-.03,.28-.05,.44-13.22,43.63-43.68,66.25-44.45,66.83-.61-.08-10.64-1.25-21.41-.85,4.25-2.4,8.37-4.71,12.22-7.04C148.26,36.36,161.17,1.21,161.6,0h0Z"/>
        </g>
      </g>
    </g>
  </g>
</svg>